<svg id="Layer_1" xmlns:rdf="http://www.w3.org/1999/02/22-rdf-syntax-ns#" xmlns="http://www.w3.org/2000/svg" enable-background="new 0 0 5573.111 1990.154" xml:space="preserve" height="1.99e3px" viewBox="0 0 5573.111 1990.154" width="5.57e3px" version="1.1" y="0px" x="0px" xmlns:cc="http://creativecommons.org/ns#" xmlns:dc="http://purl.org/dc/elements/1.1/"><path id="path3" style="fill:#ffffff" d="m3.28e3 1.07e3c-7.66 11.6-12.6 19.5-17.9 27.2-49.8 71.4-106 137-182 182-102 60.4-213 85.3-328 60.3-59.2-12.9-114-46-170-72.5-12.9-6.07-19.9-6.22-31.3 0.524-47.9 28.2-94.4 59.9-145 81.8-89.9 38.9-185 60.8-283 34.9-61.4-16.2-114-50.8-162-92.4-34-29.5-36.2-29.5-70.7-1.09-62 51-134 83.9-209 111-92.9 33.7-189 54.4-287 64.1-120 11.8-230-8.47-311-107-64.9-78.8-82.2-170-42.5-265 43.5-104 93.7-205 141-308 24.6-53.4 49.4-107 73.3-160 4.37-9.86 6.13-21.4 6.63-32.3 0.934-20 5.01-41.9-18.1-54-23.6-12.3-51.5-10.1-68.9 11.9-21.7 27.4-41 57.5-57.1 88.6-53.6 103-105 207-158 310-39.2 77.6-77.6 156-117 233-37.5 73.4-108 101-184 72.8-25.7-9.66-41.8-28.6-46.2-57.5-6.13-40.9 7.29-77.6 21.8-114 31.7-80.2 63.8-160 95.5-240 17-43 34-86 49.9-129 11.2-30.3 14.5-62.5 1.5-92.3-10.1-23-29.9-39.6-57.7-37.1-30.4 2.7-54.3 18.6-65.8 46.8-40.3 99.5-79 200-119 299-47.4 119-94.1 239-144 358-18.3 43.8-45.9 83.8-92.3 103-23.5 9.53-50.1 15.4-75.4 15.8-79 1.03-147-25.3-194-92.4-37-53.3-46.1-113-28.2-175 16.6-58.1 33.1-116 50.5-174 16.5-54.8 33.9-109 51-164 15.9-50.9 30.8-102 48.1-153 34-99.3 61.4-202 115-293 36.8-62.3 96.5-96 165-117 71.5-21.8 132 5.65 194 36 23.2 11.5 46 23.8 69.8 33.8 33.2 13.9 63.4 5.11 90.2-16.7 21.9-17.8 44-35.7 64.2-55.4 50.5-49.3 160-58.4 213-1.06 12.3 13.2 26.8 24.3 40.3 36.3 27.9 24.6 39.4 27.2 71.7 8.94 76.8-43.3 156-37.3 234-9.56 45.3 16.1 72.5 54.7 89.8 100 25.5 67.2 14.8 132-10.7 195-47 116-98.2 231-144 347-27.2 69.2-50.1 140-69.7 212-7.96 29.2-8.01 63.9-0.586 93.2 11.2 44.4 51.9 59 93.1 64.2 62.7 7.94 124-3.7 184-20.3 51.3-14.1 102-31.6 152-49.7 24.2-8.74 46.7-22.1 69.8-33.9 19.7-9.98 21.3-24.6 10.9-43-21.2-37.5-43.6-74.5-62.3-113-39.6-82-72.1-167-63.4-260 7.59-81.8 37.1-153 113-196 111-63.5 202-46 284 48.9 70.8 82.1 94.2 181 63.8 287-17 59.2-41.4 116-64.6 174-6.43 15.9-2.7 26 7.33 35.3 46.9 43.8 100 77.9 160 102 22.4 9.12 46.1 15.9 69.8 20.7 51 10.2 98.4-1.92 141-30.8 20.2-13.7 20.7-26.5 6.64-45.7-97.8-133-137-282-107-445 11-61.1 39.3-119 105-136 40.5-10.9 86.3-10.4 128-5.06 68.5 8.71 131 36 173 95 50.5 70.8 63.4 148 41.6 233-15.6 60.8-47.5 112-82.6 163-13.9 19.9-14.4 38.2 4.51 51.6 29.2 20.5 58.8 43 91.8 54.9 71.6 25.8 146 23.5 218 0.331 79-25.4 134-77.8 166-156 37.8-93 38.3-190 36.3-288-1.52-76.3-4.19-153-6.45-229-0.804-27.3-5.2-28.9-31.2-23.6-68.5 13.8-137 26.1-206 38.7-21.7 3.94-43.5 6.6-65.2 10.5-47.2 8.5-86.2-10.9-88.8-66.1-2.72-55.7-10.8-111-16.5-167-0.334-3.13-0.59-6.27-0.755-9.43-3.2-65.4 12.6-101 91.1-98.1 81 2.98 162 5.65 243 9.9 39.8 2.07 53.8-7.96 56.4-47.5 2.02-30.7 2.88-61.4 4.79-92 2.88-46 13.4-56.9 60.1-55.1 27.9 1.1 56 5.97 83.3 12.1 38.5 8.65 58.6 35.7 61.3 74 2.16 31.3 1.25 62.9 0.757 94.4-0.41 22.3 6.5 34.2 31.4 36.7 72 7.33 144 17.3 216 25.9 33.9 4.04 53 17.8 57.6 43 7.96 43.8-1.51 73.8-34.6 85.8-46.3 16.7-94.1 29.5-142 41.3-33.5 8.27-68.1 11.8-102 18.1-22.8 4.18-35.2 16.2-35 41.8 0.854 127-2.02 254 1.66 380 1.91 66.5 11.9 133 40.2 195 22.9 50.3 61.9 70.1 116 61 79.7-13.4 153-41.4 216-91.8 35.3-28 58.6-62.2 60.3-110 3.18-86.6 7.46-173 12.5-260 1.47-24.9 4.3-50.8 12.6-74 4.64-12.9 21.6-30 33.4-30.3 65.1-1.97 131-2.62 195 3 40.8 3.52 68.8 41.7 66.6 84.8-2.92 60.4-10.7 121-16.5 181-7.1 74.4-13.7 149-21.6 223-8.01 75.2 52.1 113 112 113 49.9 0.6 79.4-18 101-70.9 22-54.7 35-114 44.5-172 13.4-83 19.7-167 29.6-251 4.02-34.1 25.3-60.4 51.8-66.1 30.6-6.58 70.9 5.85 80.9 33.9 8.42 23.4 6.5 52 3.57 77.7-10.8 95.2-26.4 190-35.4 285-5.49 58.6 27.4 100 84.3 118 28.4 8.61 57.8 15.4 87.2 18.8 51.6 5.9 88.1-31.8 98.9-90.4 9.12-49.3 10.3-100 14.8-150 5.19-59.6 5.94-120 16.1-179 15-86.9 71.1-166 175-191 62.4-15.2 125-17 188-9.81 95 10.9 194 75.5 225 185 23.1 83 13.9 163-13.2 243-31.5 92.5-88.9 165-169 220-7.41 5.06-11.7 14.7-17.4 22.2 10.1 4.46 20.3 12.9 30.3 12.7 96-1.47 186-23.4 269-73.7 18.7-11.3 39.1-19.9 58.8-29.3 18.1-8.6 28.8 1.58 23.8 17.2-8.42 26.2-18.5 53.9-35.3 75.1-71 89.8-168 133-280 140-47.5 3.19-95.7-3.16-144-5.8-36.1-2.02-72.2-5.16-108-7.61-18.3-1.2-28.9 6.5-33.5 25.5-28.8 119-44 239-58.9 361-9.42 76.2-23.6 152-41.9 227-9.88 40.5-41.5 68.4-85.2 75.4-26.1 4.21-45.5-7.1-54.3-31.5-7.4-20.6-14.3-42.1-16.1-63.7-8.63-106-5.1-212 9.02-318 7.16-53.8 11.9-108 18.1-162 4.34-37.5 9.99-74.9 13.5-112 2.77-30.4-4.14-37.5-33.2-43.3-60.1-12-120-23.8-180-37-40.7-9.04-72.4 5.36-99.9 33.4-36.6 37.3-77.1 69.6-125 90.6-58 25.3-119 20-179 10.5-86.1-13.7-155-59-204-132-15.2-22.5-26.2-48-38.1-72.5-6.65-13.8-12.6-19.1-28.8-10.9-57.2 29.1-114 59-173 84-65.8 27.8-136 37.6-205 18.1-68.1-19-120-62.9-164-118 30-20 20-30 0-60zm1.97e3 -270c-0.752-9.43-0.752-18.9-2.31-28.2-8.72-53.7-62.6-77.7-106-45.4-19.6 14.6-37.5 33.9-50.9 54.4-44.8 68.6-65 147-85.2 225-5.09 19.6-8.62 40.4-8.22 60.5 0.759 37.5 22.8 48.6 54.3 28.3 65.3-42.1 114-100 154-165 40-45 60-86 60-135zm-2.56e3 38c0.573-37.3-8.14-71.8-35.6-98.7-15.2-14.9-34.3-21.3-56.1-14.5-26.5 8.21-40.8 27.9-42.8 60.5-3.86 63.2 23.3 118 51.2 171 14.4 27.5 28.1 26.7 46.6 1.22 20-34 30-75 40-118zm-650-12c-6.91-22.9-11.5-46.8-21.3-68.3-12.6-27.4-45.1-39.7-73.8-32.2-30.4 7.97-42.4 22.5-39.3 59.9 2.77 32.6 10.3 65.1 18.9 96.7 6.36 23.3 16.2 46.1 27.7 67.3 15.6 28.5 31.9 28.8 47.2 1.19 10-39 30-79 30-125z" fill="#F64060"/></svg>
